<svg xmlns="http://www.w3.org/2000/svg" width="20" height="20" viewBox="0 0 20 20" fill="none">
  <path d="M9.16675 15H10.8334V13.3333H9.16675V15ZM10.0001 1.66666C8.90573 1.66666 7.8221 1.8822 6.81105 2.30099C5.80001 2.71978 4.88135 3.33361 4.10752 4.10743C2.54472 5.67024 1.66675 7.78985 1.66675 9.99999C1.66675 12.2101 2.54472 14.3297 4.10752 15.8925C4.88135 16.6664 5.80001 17.2802 6.81105 17.699C7.8221 18.1178 8.90573 18.3333 10.0001 18.3333C12.2102 18.3333 14.3298 17.4553 15.8926 15.8925C17.4554 14.3297 18.3334 12.2101 18.3334 9.99999C18.3334 8.90564 18.1179 7.82201 17.6991 6.81096C17.2803 5.79991 16.6665 4.88125 15.8926 4.10743C15.1188 3.33361 14.2002 2.71978 13.1891 2.30099C12.1781 1.8822 11.0944 1.66666 10.0001 1.66666ZM10.0001 16.6667C6.32508 16.6667 3.33341 13.675 3.33341 9.99999C3.33341 6.32499 6.32508 3.33332 10.0001 3.33332C13.6751 3.33332 16.6667 6.32499 16.6667 9.99999C16.6667 13.675 13.6751 16.6667 10.0001 16.6667ZM10.0001 4.99999C9.11603 4.99999 8.26818 5.35118 7.64306 5.9763C7.01794 6.60142 6.66675 7.44927 6.66675 8.33332H8.33342C8.33342 7.8913 8.50901 7.46737 8.82157 7.15481C9.13413 6.84225 9.55805 6.66666 10.0001 6.66666C10.4421 6.66666 10.866 6.84225 11.1786 7.15481C11.4912 7.46737 11.6667 7.8913 11.6667 8.33332C11.6667 9.99999 9.16675 9.79166 9.16675 12.5H10.8334C10.8334 10.625 13.3334 10.4167 13.3334 8.33332C13.3334 7.44927 12.9822 6.60142 12.3571 5.9763C11.732 5.35118 10.8841 4.99999 10.0001 4.99999Z" fill="#2F3857"/>
</svg>