<svg xmlns="http://www.w3.org/2000/svg" width="20" height="20" viewBox="0 0 20 20" fill="none">
  <path d="M17.5 14.667H13V11.667H10.99C10.135 13.482 8.29 14.667 6.25 14.667C3.355 14.667 1 12.312 1 9.41699C1 6.52199 3.355 4.16699 6.25 4.16699C8.29 4.16699 10.1275 5.35199 10.99 7.16699H19V11.667H17.5V14.667ZM14.5 13.167H16V10.167H17.5V8.66699H9.955L9.7825 8.16449C9.2575 6.67199 7.8325 5.66699 6.25 5.66699C4.18 5.66699 2.5 7.34699 2.5 9.41699C2.5 11.487 4.18 13.167 6.25 13.167C7.8325 13.167 9.2575 12.162 9.7825 10.6695L9.955 10.167H14.5V13.167ZM6.25 11.667C5.0125 11.667 4 10.6545 4 9.41699C4 8.17949 5.0125 7.16699 6.25 7.16699C7.4875 7.16699 8.5 8.17949 8.5 9.41699C8.5 10.6545 7.4875 11.667 6.25 11.667ZM6.25 8.66699C5.8375 8.66699 5.5 9.00449 5.5 9.41699C5.5 9.82949 5.8375 10.167 6.25 10.167C6.6625 10.167 7 9.82949 7 9.41699C7 9.00449 6.6625 8.66699 6.25 8.66699Z" fill="#2F3857"/>
</svg>