<svg xmlns="http://www.w3.org/2000/svg" width="20" height="20" viewBox="0 0 20 20" fill="none">
  <g clip-path="url(#clip0_3397_1066)">
    <path d="M15.8333 11.6667V14.1667C15.8333 14.625 15.4583 15 15 15H14.1667V11.6667H15.8333ZM5.83333 11.6667V15H5C4.54167 15 4.16667 14.625 4.16667 14.1667V11.6667H5.83333ZM10 0.833344C5.85833 0.833344 2.5 4.19168 2.5 8.33334V14.1667C2.5 15.55 3.61667 16.6667 5 16.6667H7.5V10H4.16667V8.33334C4.16667 5.10834 6.775 2.50001 10 2.50001C13.225 2.50001 15.8333 5.10834 15.8333 8.33334V10H12.5V16.6667H15C16.3833 16.6667 17.5 15.55 17.5 14.1667V8.33334C17.5 4.19168 14.1417 0.833344 10 0.833344Z" fill="#2F3857"/>
  </g>
  <defs>
    <clipPath id="clip0_3397_1066">
      <rect width="20" height="20" fill="white"/>
    </clipPath>
  </defs>
</svg>