<svg xmlns="http://www.w3.org/2000/svg" width="20" height="20" viewBox="0 0 20 20" fill="none">
  <g clip-path="url(#clip0_3397_1132)">
    <path d="M15.8333 12.5V15.8333H4.16667V12.5H15.8333ZM16.6667 10.8333H3.33333C2.875 10.8333 2.5 11.2083 2.5 11.6667V16.6667C2.5 17.125 2.875 17.5 3.33333 17.5H16.6667C17.125 17.5 17.5 17.125 17.5 16.6667V11.6667C17.5 11.2083 17.125 10.8333 16.6667 10.8333ZM5.83333 15.4167C5.15 15.4167 4.58333 14.8583 4.58333 14.1667C4.58333 13.475 5.15 12.9167 5.83333 12.9167C6.51667 12.9167 7.08333 13.475 7.08333 14.1667C7.08333 14.8583 6.525 15.4167 5.83333 15.4167ZM15.8333 4.16667V7.5H4.16667V4.16667H15.8333ZM16.6667 2.5H3.33333C2.875 2.5 2.5 2.875 2.5 3.33333V8.33333C2.5 8.79167 2.875 9.16667 3.33333 9.16667H16.6667C17.125 9.16667 17.5 8.79167 17.5 8.33333V3.33333C17.5 2.875 17.125 2.5 16.6667 2.5ZM5.83333 7.08333C5.15 7.08333 4.58333 6.525 4.58333 5.83333C4.58333 5.14167 5.15 4.58333 5.83333 4.58333C6.51667 4.58333 7.08333 5.15 7.08333 5.83333C7.08333 6.51667 6.525 7.08333 5.83333 7.08333Z" fill="black" fill-opacity="0.26"/>
  </g>
  <defs>
    <clipPath id="clip0_3397_1132">
      <rect width="20" height="20" fill="white"/>
    </clipPath>
  </defs>
</svg>